<svg fill="none" height="256" stroke="#fff" stroke-width=".00064" viewBox="-6.4 -6.4 76.8 76.8" width="256" xmlns="http://www.w3.org/2000/svg"><path d="m47.593 41.008c.251-.435.407-.925.407-1.365v-15.276c0-.44-.156-.93-.407-1.364l-15.593 9.002z" fill="#00599c"/><path d="m33.386 49.68 13.228-7.637c.381-.22.728-.6.979-1.035l-15.593-9.003-15.593 9.003c.251.435.598.815.979 1.035l13.228 7.637c.762.44 2.01.44 2.772 0z" fill="#004482"/><path d="m47.593 23.003c-.251-.436-.598-.815-.979-1.035l-13.228-7.638c-.762-.44-2.01-.44-2.772 0l-13.228 7.638c-.762.44-1.386 1.52-1.386 2.4v15.275c0 .44.156.93.407 1.365l15.593-9.003z" fill="#659ad2"/><g fill="#fff"><path d="m32 42.672c-5.882 0-10.667-4.785-10.667-10.667s4.785-10.667 10.667-10.667c3.795 0 7.335 2.043 9.237 5.33l-4.616 2.672a5.356 5.356 0 0 0 -4.621-2.668 5.34 5.34 0 0 0 -5.333 5.333 5.34 5.34 0 0 0 5.333 5.335 5.356 5.356 0 0 0 4.621-2.669l4.616 2.671a10.705 10.705 0 0 1 -9.237 5.329z"/><path d="m42.667 31.413h-1.187v-1.186h-1.185v1.186h-1.185v1.185h1.185v1.185h1.185v-1.185h1.186v-1.185zm4.444 0h-1.185v-1.186h-1.186v1.186h-1.185v1.185h1.185v1.185h1.185v-1.185h1.185v-1.185z"/></g></svg>